<svg id="Layer_1" data-name="Layer 1" xmlns="http://www.w3.org/2000/svg" viewBox="0 0 220 115.13"><defs><style>.cls-1{fill:#0d0d12;}</style></defs><path class="cls-1" d="M137.63,70.56a17.94,17.94,0,0,0-33.59,0,73,73,0,0,0-51.17,44.57h23a6.55,6.55,0,0,1,4.35-6.25l22.18-8.21a6.68,6.68,0,0,0,3.94-3.93l8.21-22.19a6.66,6.66,0,0,1,12.5,0l8.21,22.19a6.64,6.64,0,0,0,3.93,3.93l22.18,8.21a6.57,6.57,0,0,1,4.36,6.25h23A73,73,0,0,0,137.63,70.56Z"/><path class="cls-1" d="M0,25.17v90H21.41a99.29,99.29,0,0,1,97.37-99.27c.22,0,.43,0,.65,0,.47,0,.93,0,1.41,0h.88l1.17,0h.18l2.23.08A99.31,99.31,0,0,1,220,115.13V0H25.17A25.17,25.17,0,0,0,0,25.17Z"/></svg>