<svg id="Layer_1" data-name="Layer 1" xmlns="http://www.w3.org/2000/svg" viewBox="0 0 193.65 193.65"><defs><style>.cls-1{fill:#231f20;}.cls-2{fill:#fff;}.cls-3{fill:#d8e036;}</style></defs><path class="cls-1" d="M24.37,15.65h-.16c.22,0,.44,0,.66,0Z"/><path class="cls-2" d="M103.05,57.26l8,21.63a6.5,6.5,0,0,0,3.84,3.84l21.63,8a6.5,6.5,0,0,1,0,12.19l-21.63,8a6.5,6.5,0,0,0-3.84,3.84l-8,21.63a6.5,6.5,0,0,1-12.19,0l-8-21.63A6.5,6.5,0,0,0,79,110.93l-21.63-8a6.5,6.5,0,0,1,0-12.19l21.63-8a6.5,6.5,0,0,0,3.84-3.84l8-21.63A6.5,6.5,0,0,1,103.05,57.26Z"/><path class="cls-3" d="M101.3.11,99.13,0H99L97.81,0H97c-.46,0-.92,0-1.37,0-.21,0-.42,0-.64,0a96.81,96.81,0,0,0,0,193.59h.16l1.72,0h1l1.15,0h.17l2.17-.08A96.82,96.82,0,0,0,101.3.11Zm12,140.18a17.49,17.49,0,0,1-32.76,0,71.24,71.24,0,0,1-49.9-43.46,71.22,71.22,0,0,1,49.9-43.46,17.49,17.49,0,0,1,32.76,0,71.22,71.22,0,0,1,49.9,43.46A71.22,71.22,0,0,1,113.33,140.29Z"/></svg>