<svg id="Layer_1" data-name="Layer 1" xmlns="http://www.w3.org/2000/svg" viewBox="0 0 250.38 237.45"><defs><style>.cls-1{fill:#231f20;}.cls-2{fill:#fff;}.cls-3{fill:#d8e036;}</style></defs><rect class="cls-1" width="250.38" height="237.45"/><path class="cls-1" d="M51.81,37.55h-.16c.22,0,.44,0,.66,0Z"/><path class="cls-2" d="M130.48,79.15l8,21.63a6.48,6.48,0,0,0,3.84,3.84l21.63,8a6.5,6.5,0,0,1,0,12.19l-21.63,8a6.5,6.5,0,0,0-3.84,3.84l-8,21.63a6.5,6.5,0,0,1-12.19,0l-8-21.63a6.5,6.5,0,0,0-3.84-3.84l-21.63-8a6.5,6.5,0,0,1,0-12.19l21.63-8a6.48,6.48,0,0,0,3.84-3.84l8-21.63A6.5,6.5,0,0,1,130.48,79.15Z"/><path class="cls-3" d="M128.74,22l-2.17-.08h-.17l-1.15,0h-.86c-.46,0-.92,0-1.37,0-.21,0-.43,0-.64,0a96.81,96.81,0,0,0,0,193.59h.16l1.72,0h1l1.15,0h.17c.72,0,1.45,0,2.17-.07a96.82,96.82,0,0,0,0-193.44Zm12,140.18a17.49,17.49,0,0,1-32.76,0,71.23,71.23,0,0,1-49.9-43.45A71.23,71.23,0,0,1,108,75.26a17.49,17.49,0,0,1,32.76,0,71.21,71.21,0,0,1,49.9,43.47A71.21,71.21,0,0,1,140.77,162.18Z"/></svg>