<svg id="Layer_1" data-name="Layer 1" xmlns="http://www.w3.org/2000/svg" viewBox="0 0 131.19 40.19"><defs><style>.cls-1{fill:#003737;}</style></defs><path class="cls-1" d="M82.19,2l3.67,9.92a3,3,0,0,0,1.76,1.76l9.92,3.67a3,3,0,0,1,0,5.59l-9.92,3.67a3,3,0,0,0-1.76,1.77l-3.67,9.92a3,3,0,0,1-5.59,0l-3.67-9.92a3,3,0,0,0-1.77-1.77l-9.92-3.67a3,3,0,0,1,0-5.59l9.92-3.67a3,3,0,0,0,1.77-1.76L76.6,2A3,3,0,0,1,82.19,2Z"/><path class="cls-1" d="M33.34.28,43,4.7a2.93,2.93,0,0,0,2.49,0L55.06.28a3,3,0,0,1,3.95,4l-4.42,9.61c-.36.79-7.38,24.4-7.38,24.4a3,3,0,0,1-5.59,0s-7.45-23.61-7.81-24.4L29.39,4.24A3,3,0,0,1,33.34.28Z"/><path class="cls-1" d="M4.24,39.91l9.61-4.42a3,3,0,0,1,2.49,0L26,39.91a3,3,0,0,0,4-3.95l-4.42-9.61C25.12,25.55,18.1,2,18.1,2a3,3,0,0,0-5.59,0S5.07,25.55,4.7,26.35L.28,36A3,3,0,0,0,4.24,39.91Z"/><path class="cls-1" d="M130.91,36a3,3,0,0,1-4,3.95c-3.88-2.11-7.84-4.89-12-6.24a5.11,5.11,0,0,0-2.59-.3,4.92,4.92,0,0,0-1.85.94,21.31,21.31,0,0,0-3.15,3.22c-.52.6-1.34,2-2.07,2.38A3,3,0,0,1,101.29,36l4.41-9.61c.06-.13.3-.83.65-1.92a13.79,13.79,0,0,0,0-8.66c-.35-1.09-.59-1.79-.65-1.92l-4.41-9.61A3,3,0,0,1,105.24.29l10.82,4,2,.63a3,3,0,0,0,2.48-.33l2.11-1.33L127,.29a3,3,0,0,1,4,4l-4.42,9.61c-.06.13-.32.93-.69,2.15a13.81,13.81,0,0,0,0,8.2c.37,1.22.63,2,.69,2.15Z"/></svg>